PathFileType	4	(X/Y/Z)	/home/abdul/Desktop/myosuite/custom_workspace/IK/output/S14_12_3.trc
DataRate	CameraRate	NumFrames	NumMarkers	Units	OrigDataRate	OrigDataStartFrame	OrigNumFrames
200.0	200.0	56	3	mm	200.0	1329	2126
Frame#	Time	V_Shoulder			V_Elbow			V_Wrist		
		X1	Y1	Z1	X2	Y2	Z2	X3	Y3	Z3

1329	6.64	-170.36339632551332	698.4090423798561	310.94227237180115	-197.93528302421606	470.01527695554745	64.81318595098085	-77.98045647989969	422.74548511230154	273.33598961096203
1330	6.645	-170.34414115424718	698.2056307797302	310.9399834600368	-197.78244069144466	470.0409229184062	64.51866272797524	-77.53877145150989	421.08946129278587	272.56515744860405
1331	6.65	-170.3239503859315	698.0007378063897	310.9381139116886	-197.62916644576518	470.06472545261204	64.22322982074112	-77.0972231461867	419.4249735313415	271.7772627628357
1332	6.655	-170.3028125501248	697.7943922962371	310.9366674694276	-197.4754988377686	470.0866308972637	63.926947985157234	-76.65597223852919	417.7524463787304	270.97228260532256
1333	6.66	-170.28071675717982	697.5866242655126	310.9356475818054	-197.32147548825867	470.1065870118563	63.62987965024402	-76.21518174611003	416.0723172394097	270.1502105634785
1334	6.665	-170.2576527180656	697.3774649111857	310.93505740288475	-197.16713307386703	470.1245431148458	63.33208885921839	-75.77501687268004	414.38503600440777	269.3110570333875
1335	6.67	-170.23361076347	697.1669466098742	310.93489979255503	-197.01250731608465	470.1404502166956	63.033641211086184	-75.3356448395129	412.69106464002783	268.4548494649601
1336	6.675	-170.20858186213647	696.955102914733	310.9351773175335	-196.85763297356633	470.1542611468466	62.734603803001065	-74.89723470503846	410.9908767325936	267.5816325781098
1337	6.68	-170.18255763838732	696.7419685502568	310.93589225304726	-196.70254383755528	470.16593067409406	62.435045173581095	-74.45995717297684	409.28495698967106	266.6914685487894
1338	6.685	-170.15553038879042	696.5275794049461	310.9370465851884	-196.54727273026367	470.17541561989526	62.13503524733748	-74.023984389249	407.5738006984164	265.78443716378564
1339	6.69	-170.12749309792687	696.3119725217899	310.9386420139328	-196.3918515060369	470.1826749641707	61.83464528033136	-73.5894897280031	405.85791314192807	264.8606359432391
1340	6.695	-170.09843945321916	696.0951860865248	310.9406799568082	-196.23631105512078	470.18766994321095	61.533947807136244	-73.15664756715893	404.13780897470735	263.9201802299312
1341	6.7	-170.0683638587825	695.8772594136308	310.9431615531965	-196.0806813098448	470.19036413934646	61.233016589144555	-72.72563305393388	402.4140115585611	262.96320324446515
1342	6.705	-170.0372614482636	695.6582329300369	310.9460876692486	-195.92499125302788	470.19072356208665	60.931926564219104	-72.29662186087494	400.6870522605085	261.98985610555803
1343	6.71	-170.00512809663357	695.4381481565059	310.94945890339176	-195.76926892840905	470.1887167204837	60.630753797652304	-71.86978993297859	398.95746971447704	261.0003078147596
1344	6.715	-169.97196043090543	695.2170476866826	310.95327559240087	-195.61354145290136	470.1843146865267	60.32957543435954	-71.44531322653592	397.2258090487961	259.9947452050189
1345	6.72	-169.93775583974795	694.994975163786	310.9575378180084	-195.45783503046556	470.1774911494239	60.02846965219769	-71.02336744039381	395.4926210817133	258.97337285263063
1346	6.725	-169.90251248197117	694.7719752549424	310.9622454140188	-195.3021749673982	470.16822246067983	59.72751561626625	-70.60412774037204	393.7584614873627	257.9364129522112
1347	6.73	-169.86622929386186	694.5480936231514	310.9673979738966	-195.14658568882837	470.1564876699287	59.426793434016616	-70.18776847762217	392.0238899348164	256.8841051544749
1348	6.735	-169.82890599535006	694.3233768968945	310.97299485878904	-194.99109075621863	470.1422685515309	59.12638411096564	-69.77446290175712	390.2894692030344	255.81670636670992
1349	6.74	-169.79054309499054	694.0978726373937	310.97903520594673	-194.83571288566748	470.1255496219932	58.82636950678209	-69.36438286961756	388.5557642747046	254.7344905159814
1350	6.745	-169.75114189374648	693.8716293035385	310.9855179375004	-194.68047396681334	470.1063181483216	58.52683229149057	-68.95769855057618	386.823341412123	253.63774827522496
1351	6.75	-169.71070448756558	693.644696214505	310.9924417695509	-194.52539508214457	470.0845641474607	58.22785590151522	-68.55457812930999	385.0927672184096	252.52678675252722
1352	6.755	-169.66923376874217	693.417123510099	310.9998052215284	-194.37049652652485	470.0602803770208	57.92952449526754	-68.15518750699597	383.36460768747963	251.40192914402894
1353	6.76	-169.62673342606124	693.1889621088602	311.00760662577335	-194.21579782674903	470.033462317537	57.6319229079668	-67.75969000190601	381.63942724630044	250.26351435102228
1354	6.765	-169.58320794372432	692.9602636639719	311.0158441372925	-194.06131776095185	470.0041081465462	57.3351366053697	-67.36824605039251	379.9177877930514	249.11189656195177
1355	6.77	-169.53866259905973	692.731080517031	311.0245157436405	-193.90707437769998	469.9722187048051	57.03925163607748	-66.98101290926716	378.20024773487125	247.9474448001647
1356	6.775	-169.49310345902208	692.5014656497333	311.03361927487776	-193.75308501460484	469.9377974550107	56.74435458208369	-66.59814436058133	376.48736102892576	246.77054243838984
1357	6.78	-169.44653737549098	692.2714726335417	311.0431524135533	-193.5993663163049	469.9008504334157	56.45053250722427	-66.21979041981835	374.77967623054803	245.58158668105472
1358	6.785	-169.39897197937898	692.0411555774112	311.05311270466285	-193.4459342516744	469.86138619476094	56.157872903194466	-65.84609704850452	373.0777355522099	244.3809880156791
1359	6.79	-169.35041567356384	691.8105690736469	311.06349756553	-193.29280413012734	469.8194157509744	55.86646363280288	-65.47720587223776	371.3820739370566	243.1691696347039
1360	6.795	-169.3008776246627	691.5797681419841	311.0743042955598	-193.13999061689483	469.77495250410925	55.57639287014267	-65.11325390512091	369.693218150695	241.94656682923312
1361	6.8	-169.25036775366715	691.348808171983	311.08553008581333	-192.98750774716768	469.72801217401184	55.28774903737353	-64.75437328156954	368.01168589485394	240.713626356276
1362	6.805	-169.1988967254621	691.117744863832	311.0971720283549	-192.83536893900555	469.67861272122525	55.00062073782506	-64.40069099644337	366.3379849464483	239.47080578118195
1363	6.81	-169.14647593725348	690.886634167673	311.1092271253206	-192.6835870049281	469.6267742656488	54.715096685152474	-64.05232865442575	364.6726123254603	238.21857279705574
1364	6.815	-169.09311750593167	690.6555322215522	311.12169229766135	-192.53217416211427	469.5725190014788	54.4312656282995	-63.70940222954613	363.0160534949202	236.95740452302874
1365	6.82	-169.03883425440142	690.4244952881176	311.13456439351427	-192.38114204114976	469.51587110896105	54.14921627205028	-63.372021835708296	361.36878159610865	235.68778678334212
1366	6.825	-168.9836396969085	690.1935796901803	311.14784019615615	-192.23050169327445	469.45685666348686	53.86903719298249	-63.0402915090508	359.73125672192964	234.41021336926605
1367	6.83	-168.92754802339843	689.9628417452745	311.16151643149766	-192.08026359609426	469.39550354255874	53.5908167506664	-62.7143090029267	358.10392523120584	233.12518528594123
1368	6.835	-168.8705740829424	689.7323376993396	311.175589775077	-191.93043765773456	469.3318413311474	53.314642993990475	-62.39416559624681	356.4872191064368	231.8332099862762
1369	6.84	-168.81273336626762	689.5021236596658	311.19005685851556	-191.78103321942496	469.26590122594905	53.04060356253216	-62.07994591588562	354.88155535733074	230.53480059407528
1370	6.845	-168.7540419874323	689.2722555272435	311.20491427539963	-191.63205905651688	469.19771593903783	52.76878558293242	-61.77172777380066	353.2873354721792	229.23047511859926
1371	6.85	-168.69451666468478	689.0427889286589	311.22015858655635	-191.48352337794802	469.1273196013932	52.499275560274725	-61.46958201946575	351.7049449188845	227.92075566277975
1372	6.855	-168.6341747005496	688.8137791476834	311.2357863246952	-191.33543382417855	469.0547476667589	52.23215926451286	-61.17357240816549	350.134752697188	226.60616762731394
1373	6.86	-168.5730339611832	688.585281056709	311.2517939983884	-191.1877974636364	468.98003681626756	51.96752161203672	-60.883755485644286	348.57711094336764	225.28723891286296
1374	6.865	-168.51111285504325	688.3573490481808	311.26817809536806	-191.0406207877191	468.9032248642395	51.70544654251116	-60.60018048954592	347.0323545883914	223.964499122561
1375	6.87	-168.44843031091708	688.1300369661803	311.284935085123	-190.89390970441025	468.8243506655358	51.446016891169506	-60.32288926802252	345.500801070226	222.63847876701794
1376	6.875	-168.38500575535434	687.9033980383201	311.3020614207794	-190.74766953057977	468.74345402481345	51.189314256789984	-60.05191621583213	343.982750100708	221.3097084739607
1377	6.88	-168.32085908955057	687.6774848081005	311.3195535402544	-190.6019049830449	468.66057560800135	50.935418865630155	-59.78728822818398	342.4784834870951	219.9787182046124
1378	6.885	-168.256010665728	687.4523490678938	311.3374078666777	-190.4566201684794	468.5757568562778	50.68440943164098	-59.52902467252957	340.98826500812106	218.64603647885218
1379	6.89	-168.1904812630613	687.2280417927067	311.35562080807796	-190.31181857226602	468.4890399027985	50.436363013327295	-59.27713737843595	339.5123403440935	217.31218961113302
1380	6.895	-168.12429206319368	687.0046130748843	311.37418875633574	-190.16750304639578	468.4004674923856	50.19135486766671	-59.03163064561569	338.05093706028845	215.97770095905992
1381	6.9	-168.0574646253922	686.7821120599086	311.39310808541023	-190.02367579652412	468.3100829043528	49.94945830154146	-58.792501270126245	336.60426464262275	214.64309018644838
1382	6.905	-167.99002086138756	686.560586883447	311.4123751488505	-189.88033836830067	468.2179298786035	49.71074452117948	-58.55973858868891	335.17251458431724	213.3088725425925
1383	6.91	-167.92198300994525	686.3400846098076	311.43198627660644	-189.73749163309594	468.12405254510224	49.475282480139704	-58.33332454101642	333.7558605220089	211.97555815937366
1384	6.915	-167.85337361121452	686.1206511719466	311.4519377711585	-189.595135773253	468.0284953567841	49.24313872641415	-58.11323374997711	332.3544584195275	210.64365136773782
